HIERARCHY
ROOT Hips
{
    OFFSET 0.000000 0.000000 0.000000
    CHANNELS 6 Xposition Yposition Zposition Zrotation Xrotation Yrotation
    JOINT Spine
    {
        OFFSET -0.000000 14.517291 0.000000
        CHANNELS 3 Zrotation Xrotation Yrotation
        JOINT Spine1
        {
            OFFSET -0.000000 37.558300 0.000000
            CHANNELS 3 Zrotation Xrotation Yrotation
            JOINT Neck
            {
                OFFSET -0.000000 37.404057 3.400369
                CHANNELS 3 Zrotation Xrotation Yrotation
                JOINT Head
                {
                    OFFSET -0.000000 24.785618 -3.540803
                    CHANNELS 3 Zrotation Xrotation Yrotation
                    End Site
                    {
                        OFFSET -0.000000 35.408028 0.000000
                    }
                }
            }
            JOINT LeftShoulder
            {
                OFFSET 6.992933 33.973492 -0.192664
                CHANNELS 3 Zrotation Xrotation Yrotation
                JOINT LeftArm
                {
                    OFFSET 21.527611 0.000000 0.000000
                    CHANNELS 3 Zrotation Xrotation Yrotation
                    JOINT LeftForeArm
                    {
                        OFFSET 56.353916 0.000000 0.000000
                        CHANNELS 3 Zrotation Xrotation Yrotation
                        JOINT LeftHand
                        {
                            OFFSET 47.774071 0.000000 0.000000
                            CHANNELS 3 Zrotation Xrotation Yrotation
                            End Site
                            {
                                OFFSET 26.556021 0.000000 0.000000
                            }
                        }
                    }
                }
            }
            JOINT RightShoulder
            {
                OFFSET -7.065357 33.973492 -0.192664
                CHANNELS 3 Zrotation Xrotation Yrotation
                JOINT RightArm
                {
                    OFFSET -21.527611 0.000000 0.000000
                    CHANNELS 3 Zrotation Xrotation Yrotation
                    JOINT RightForeArm
                    {
                        OFFSET -56.353916 0.000000 0.000000
                        CHANNELS 3 Zrotation Xrotation Yrotation
                        JOINT RightHand
                        {
                            OFFSET -47.774071 0.000000 0.000000
                            CHANNELS 3 Zrotation Xrotation Yrotation
                            End Site
                            {
                                OFFSET -26.556021 0.000000 0.000000
                            }
                        }
                    }
                }
            }
        }
    }
    JOINT LeftUpLeg
    {
        OFFSET 17.704014 0.000000 0.000000
        CHANNELS 3 Zrotation Xrotation Yrotation
        JOINT LeftLeg
        {
            OFFSET -0.000000 -81.181816 0.000000
            CHANNELS 3 Zrotation Xrotation Yrotation
            JOINT LeftFoot
            {
                OFFSET -0.000000 -62.821102 0.000000
                CHANNELS 3 Zrotation Xrotation Yrotation
                JOINT LeftToeBase
                {
                    OFFSET -0.000000 -11.507608 26.556021
                    CHANNELS 3 Zrotation Xrotation Yrotation
                    End Site
                    {
                        OFFSET -0.000000 0.000000 7.081605
                    }
                }
            }
        }
    }
    JOINT RightUpLeg
    {
        OFFSET -17.704014 0.000000 0.000000
        CHANNELS 3 Zrotation Xrotation Yrotation
        JOINT RightLeg
        {
            OFFSET -0.000000 -81.181816 0.000000
            CHANNELS 3 Zrotation Xrotation Yrotation
            JOINT RightFoot
            {
                OFFSET -0.000000 -62.821102 0.000000
                CHANNELS 3 Zrotation Xrotation Yrotation
                JOINT RightToeBase
                {
                    OFFSET -0.000000 -11.507608 26.556021
                    CHANNELS 3 Zrotation Xrotation Yrotation
                    End Site
                    {
                        OFFSET -0.000000 0.000000 7.081605
                    }
                }
            }
        }
    }
}
MOTION
Frames:    10
Frame Time:    0.008333
-10.254426    151.376007    -10.321638    0.115276    1.749131    28.404907    -0.234729    3.002205    13.492752    -6.408434    -1.391237    4.418218    0.562425    2.342679    -9.887360    12.207748    -2.856277    -8.337807    2.123674    2.347204    -7.100323    -42.445721    18.574753    -47.905182    -11.932460    -15.522093    -132.558563    2.473357    -39.946861    -6.465516    -9.196975    0.169760    8.166132    34.569805    -31.031162    52.299110    -40.570934    -47.839664    77.971191    6.796678    -16.582193    39.422653    -1.758932    -35.514919    -30.381805    -10.833187    23.008924    -23.767904    -10.141206    3.929216    28.717054    0.000000    0.000000    0.000000    5.537253    11.786152    -17.145428    2.923132    23.043121    -1.759161    -3.444223    -30.245453    -7.004639    0.000000    0.000000    0.000000    
-10.259234    151.383240    -10.320830    0.114360    1.745176    28.419668    -0.231696    2.989330    13.494958    -6.416405    -1.381744    4.419425    0.579206    2.333680    -9.881840    12.198729    -2.854165    -8.335969    2.142487    2.344404    -7.099460    -42.467873    18.562790    -47.906712    -11.940350    -15.487889    -132.546051    2.436543    -39.926563    -6.487325    -9.172491    0.161697    8.162292    34.651745    -31.103384    52.305489    -40.346233    -47.853855    78.384987    6.776794    -16.562357    39.400131    -1.763560    -35.505295    -30.398033    -10.824178    22.991379    -23.789091    -10.146433    3.948312    28.726843    0.000000    0.000000    0.000000    5.545959    11.787367    -17.184906    2.908260    23.040623    -1.759297    -3.408003    -30.226538    -6.976487    0.000000    0.000000    0.000000    
-10.262869    151.388794    -10.319671    0.114808    1.738431    28.438322    -0.230850    2.982202    13.497270    -6.415972    -1.375751    4.420532    0.585047    2.338081    -9.880295    12.200316    -2.873548    -8.332801    2.143373    2.342917    -7.103155    -42.472416    18.559355    -47.903095    -11.953715    -15.471003    -132.539337    2.388498    -39.932632    -6.490405    -9.159873    0.162253    8.156189    34.694859    -31.149179    52.300240    -40.213741    -47.879974    78.667336    6.746640    -16.557270    39.406582    -1.774826    -35.492661    -30.392897    -10.807614    22.984034    -23.825352    -10.145557    3.958199    28.745087    0.000000    0.000000    0.000000    5.556594    11.792083    -17.214939    2.894735    23.037615    -1.776059    -3.367870    -30.214989    -6.936600    0.000000    0.000000    0.000000    
-10.267031    151.396042    -10.323904    0.113675    1.739137    28.460230    -0.232497    2.972891    13.492811    -6.405100    -1.376051    4.419159    0.560251    2.346051    -9.879860    12.226638    -2.890678    -8.322915    2.130433    2.341530    -7.097234    -42.475811    18.556824    -47.902081    -11.954977    -15.472447    -132.522049    2.358848    -39.925983    -6.504316    -9.170022    0.144119    8.151973    34.746788    -31.181166    52.291992    -40.090321    -47.882984    78.899124    6.718830    -16.542839    39.405800    -1.787662    -35.487381    -30.406765    -10.804755    22.963100    -23.825687    -10.140562    3.994169    28.749802    0.000000    0.000000    0.000000    5.562814    11.789251    -17.270563    2.881671    23.031887    -1.776847    -3.327927    -30.204468    -6.899485    0.000000    0.000000    0.000000    
-10.271042    151.403656    -10.322882    0.105446    1.735529    28.481182    -0.223033    2.951260    13.494017    -6.411120    -1.356437    4.420673    0.579491    2.341243    -9.881097    12.223403    -2.913606    -8.324840    2.143588    2.336595    -7.102452    -42.495720    18.556961    -47.904594    -11.957701    -15.461887    -132.506912    2.385926    -39.915531    -6.487295    -9.157015    0.141088    8.140505    34.776962    -31.221600    52.287857    -39.994957    -47.874527    79.057976    6.635579    -16.551485    39.394730    -1.789812    -35.479298    -30.426750    -10.793816    22.943747    -23.852434    -10.131912    4.011125    28.760399    0.000000    0.000000    0.000000    5.576708    11.788756    -17.282938    2.882154    23.026651    -1.758358    -3.351996    -30.172119    -6.935680    0.000000    0.000000    0.000000    
-10.272976    151.411469    -10.324766    0.102961    1.727300    28.502291    -0.216341    2.945378    13.493327    -6.410558    -1.350068    4.420858    0.562291    2.349734    -9.883679    12.255646    -2.939678    -8.317164    2.139762    2.339599    -7.104701    -42.498459    18.552006    -47.905621    -11.966475    -15.455716    -132.493866    2.417608    -39.921528    -6.486959    -9.152751    0.128483    8.137051    34.768105    -31.225344    52.258995    -39.968525    -47.886456    79.118828    6.580595    -16.576578    39.354671    -1.736089    -35.405857    -30.393433    -10.714081    22.690372    -24.031033    -10.341478    4.110125    28.764734    0.000000    0.000000    0.000000    5.585809    11.795738    -17.320152    2.879704    23.018806    -1.751502    -3.325485    -30.153336    -6.924447    0.000000    0.000000    0.000000    
-10.275301    151.417877    -10.326987    0.099099    1.723605    28.521795    -0.215508    2.936429    13.490918    -6.401396    -1.345230    4.420457    0.541339    2.352798    -9.894543    12.280527    -2.956830    -8.319834    2.136069    2.340386    -7.097986    -42.511719    18.542046    -47.907902    -11.970948    -15.444895    -132.479599    2.415515    -39.913345    -6.474592    -9.157883    0.128396    8.132762    34.761272    -31.236771    52.242905    -39.959587    -47.880768    79.129616    6.510012    -16.595982    39.334385    -1.797343    -35.449951    -30.412830    -10.764211    22.894150    -23.903059    -10.141161    4.047993    28.765020    0.000000    0.000000    0.000000    5.600140    11.799106    -17.326431    2.872438    23.004725    -1.780925    -3.287771    -30.138140    -6.899119    0.000000    0.000000    0.000000    
-10.277675    151.425934    -10.332714    0.091493    1.722495    28.538057    -0.202947    2.929612    13.492336    -6.412140    -1.346092    4.420857    0.526356    2.358775    -9.903742    12.314546    -2.974298    -8.319955    2.141968    2.339828    -7.096551    -42.518387    18.550674    -47.905197    -11.966021    -15.461335    -132.468781    2.448961    -39.913170    -6.477487    -9.160769    0.128925    8.126467    34.737152    -31.234426    52.218510    -40.008186    -47.871124    79.057533    6.411373    -16.617308    39.288170    -1.794846    -35.445656    -30.413803    -10.762353    22.874645    -23.921936    -10.129812    4.073317    28.773981    0.000000    0.000000    0.000000    5.608878    11.797947    -17.342884    2.874670    22.994198    -1.794343    -3.255700    -30.125055    -6.875929    0.000000    0.000000    0.000000    
-10.276704    151.436584    -10.341483    0.083899    1.725034    28.549149    -0.193003    2.918975    13.495928    -6.421580    -1.344351    4.422130    0.561026    2.357678    -9.908165    12.272408    -2.998458    -8.333571    2.149837    2.340155    -7.097841    -42.533558    18.554697    -47.898594    -11.961075    -15.479561    -132.461075    2.468790    -39.915298    -6.467998    -9.161263    0.124890    8.121978    34.682755    -31.214108    52.183121    -40.094166    -47.870075    78.923950    6.291218    -16.661995    39.232418    -1.736677    -35.385460    -30.371914    -10.679513    22.617926    -24.085064    -10.340212    4.188209    28.749537    0.000000    0.000000    0.000000    5.614183    11.792760    -17.357651    2.870983    22.982374    -1.784690    -3.227525    -30.101782    -6.875441    0.000000    0.000000    0.000000    
-10.277559    151.445435    -10.351128    0.075122    1.731354    28.567213    -0.182430    2.905042    13.489449    -6.428511    -1.340715    4.420172    0.546753    2.366357    -9.911505    12.297373    -3.027883    -8.327895    2.151319    2.337295    -7.094231    -42.542805    18.550932    -47.892551    -11.946292    -15.506684    -132.451172    2.461771    -39.904034    -6.478619    -9.168428    0.121100    8.120285    34.646889    -31.204756    52.162918    -40.101162    -47.858047    78.842354    6.238554    -16.711344    39.188042    -1.739917    -35.383476    -30.372023    -10.666772    22.586172    -24.089848    -10.342069    4.217757    28.734528    0.000000    0.000000    0.000000    5.619444    11.782529    -17.371265    2.871103    22.974121    -1.753468    -3.235705    -30.081703    -6.909714    0.000000    0.000000    0.000000    
